<svg width="428" height="120" viewBox="0 0 428 120" fill="none" xmlns="http://www.w3.org/2000/svg">
<path d="M117.9 75.5C117.3 77.8 116.5 80 115.7 82.3H4.2C3.3 80.1 2.6 77.8 2 75.5H117.9Z" fill="#fff"/>
<path d="M113 88.1C111.8 90.4 110.4 92.7 108.8 94.9H11.1C9.59999 92.7 8.19999 90.5 6.89999 88.1H113Z" fill="#fff"/>
<path d="M104.1 100.7C101.8 103.1 99.4 105.4 96.7 107.5H23.2C22.4 106.9 21.6 106.2 20.8 105.6C19 104.1 17.4 102.5 15.8 100.8H104.1V100.7Z" fill="#fff"/>
<path d="M119.9 62.9C119.8 65.2 119.6 67.4 119.2 69.7H0.7C0.7 69.6 0.7 69.6 0.7 69.5C0.4 67.3 0.1 65.1 0 62.9H119.9Z" fill="#fff"/>
<path d="M87.6 113.2C79.1 117.6 69.6 120 59.9 120C52.6 120 45.4 118.7 38.7 116.1C36.5 115.3 34.3 114.3 32.2 113.2H87.6Z" fill="#fff"/>
<path d="M64.9 57.1L103.4 18.6C108.1 23.5 111.8 29.1 114.6 35.2C117.7 42.1 119.5 49.5 119.9 57H64.9V57.1Z" fill="#fff"/>
<path d="M0 57.1C0.3 50 1.9 43.2 4.6 36.6C7.6 29.5 11.9 23 17.5 17.5C23 12.1 29.4 7.7 36.6 4.7C44 1.6 51.8 0 59.9 0C74.3 0 88.2 5.2 99.1 14.6L56.6 57.1H0Z" fill="#fff"/>
<path d="M302.2 83.5H281.6V88.5H289V107.9H294.7V88.5H302.1V83.5H302.2ZM267.7 108.4C274.7 108.4 278.7 104.3 278.7 97.4V83.5H273V97.3C273 101 271 103.3 267.7 103.3C264.3 103.3 262.3 101 262.3 97.3V83.5H256.6V97.3C256.6 104.4 260.7 108.4 267.7 108.4ZM253.7 83.5H233.1V88.5H240.5V107.9H246.2V88.5H253.6V83.5H253.7ZM224.4 107.9H230.1V83.5H224.4V107.9ZM221.4 83.5H200.8V88.5H208.2V107.9H213.9V88.5H221.3V83.5H221.4ZM188.7 108.5C194.8 108.5 199 105.4 199 100.8C199 96.4 195.8 93.9 189.2 93.1C185.8 92.7 184.4 91.9 184.4 90.4C184.4 88.8 186.2 87.8 189.1 87.8C191.4 87.8 193.6 88.5 195.4 89.8L198.1 85.8C195.6 84 192.3 83 188.9 83C183 83 178.9 86 178.9 90.5C178.9 94.9 181.9 97.2 188.5 97.9C191.9 98.3 193.4 99.1 193.4 100.7C193.4 102.4 191.6 103.4 188.7 103.4C185.8 103.4 183.3 102.5 181.2 100.9L178.2 105C180.9 107.2 184.7 108.5 188.7 108.5ZM168.6 83.5V92.1L168.7 98.6L157.7 83.5H152.6V107.9H158.3V99.4L158.2 92.8L169.2 107.9H174.3V83.5H168.6ZM141.4 107.9H147.1V83.5H141.4V107.9Z" fill="#fff"/>
<path d="M384.6 52.7L388.5 62.3H380.6L384.6 52.7ZM392.4 71.6H398.6L387.7 47.2H381.6L370.7 71.6H376.8L378.6 67.2H390.6L392.4 71.6ZM371.4 71.6L360.2 59.2L370.5 47.3H363.5L355.5 56.8V47.3H349.8V71.7H355.5V62L364.1 71.7H371.4V71.6ZM335.6 72.1C341.7 72.1 345.9 69 345.9 64.4C345.9 60 342.7 57.5 336.1 56.7C332.7 56.3 331.3 55.5 331.3 54C331.3 52.4 333.1 51.4 336 51.4C338.3 51.4 340.5 52.1 342.3 53.4L345 49.4C342.5 47.6 339.2 46.6 335.8 46.6C329.9 46.6 325.8 49.6 325.8 54.1C325.8 58.5 328.8 60.8 335.4 61.5C338.8 61.9 340.3 62.7 340.3 64.3C340.3 66 338.5 67 335.6 67C332.7 67 330.2 66.1 328.1 64.5L325.1 68.6C327.7 70.9 331.6 72.1 335.6 72.1ZM315.5 71.6H321.2V47.2H315.5V71.6ZM304.3 47.2V55.8L304.4 62.3L293.4 47.2H288.3V71.6H294V63.1L293.9 56.5L304.9 71.6H310V47.2H304.3ZM285.6 71.6L274.4 59.2L284.7 47.3H277.7L269.7 56.8V47.3H264V71.7H269.7V62L278.3 71.7H285.6V71.6ZM245.9 66.8V61.5H258.2V56.9H245.9V52H258.9V47.2H240.3V71.6H259.3V66.8H245.9ZM237.3 47.2H216.7V52.2H224.1V71.6H229.8V52.2H237.2V47.2H237.3ZM202.1 67.1C197.6 67.1 194.7 64 194.7 59.4C194.7 54.8 197.6 51.7 202.1 51.7C206.6 51.7 209.5 54.8 209.5 59.4C209.5 64 206.6 67.1 202.1 67.1ZM202.1 72.2C210 72.2 215.2 67.2 215.2 59.4C215.2 51.6 210 46.6 202.1 46.6C194.2 46.6 189 51.6 189 59.4C189 67.2 194.2 72.2 202.1 72.2ZM172.7 66.8V61.5H185V56.9H172.7V52H185.7V47.2H167.1V71.6H186.1V66.8H172.7ZM150.9 57.2V61.8H157.5V65.5C156.2 66.6 154.3 67.3 152 67.3C147.6 67.3 144.7 64.2 144.7 59.5C144.7 54.7 147.6 51.7 152.3 51.7C154.5 51.7 156.6 52.6 158.2 54.1L161.6 50.7C159.1 48 156 46.8 152.3 46.8C144.4 46.8 139 52 139 59.6C139 67.3 144 72.3 151.8 72.3C156.1 72.3 159.8 70.8 162.3 68.2V57.2H150.9Z" fill="#fff"/>
<path d="M289.8 35.8C295.9 35.8 300.1 32.7 300.1 28.1C300.1 23.7 296.9 21.2 290.3 20.4C286.9 20 285.5 19.2 285.5 17.7C285.5 16.1 287.3 15.1 290.2 15.1C292.5 15.1 294.7 15.8 296.5 17.1L299.2 13.1C296.7 11.3 293.4 10.3 290 10.3C284.1 10.3 280 13.3 280 17.8C280 22.2 283 24.5 289.6 25.2C293 25.6 294.5 26.4 294.5 28C294.5 29.7 292.7 30.7 289.8 30.7C286.9 30.7 284.4 29.8 282.3 28.2L279.3 32.3C282 34.5 285.8 35.8 289.8 35.8ZM269.7 10.9V19.5L269.8 26L258.8 10.9H253.7V35.3H259.4V26.8L259.3 20.2L270.3 35.3H275.4V10.9H269.7ZM235.5 30.4V25.1H247.8V20.5H235.5V15.6H248.5V10.8H230V35.2H249V30.4H235.5ZM226.9 10.9H206.3V15.9H213.7V35.3H219.4V15.9H226.8V10.9H226.9ZM194.7 16.3L198.6 25.9H190.7L194.7 16.3ZM202.4 35.2H208.6L197.7 10.8H191.6L180.7 35.2H186.8L188.6 30.8H200.6L202.4 35.2ZM183 10.9H162.4V15.9H169.8V35.3H175.5V15.9H182.9V10.9H183ZM150.4 35.8C156.5 35.8 160.7 32.7 160.7 28.1C160.7 23.7 157.5 21.2 150.9 20.4C147.5 20 146.1 19.2 146.1 17.7C146.1 16.1 147.9 15.1 150.8 15.1C153.1 15.1 155.3 15.8 157.1 17.1L159.8 13.1C157.3 11.3 154 10.3 150.6 10.3C144.7 10.3 140.6 13.3 140.6 17.8C140.6 22.2 143.6 24.5 150.2 25.2C153.6 25.6 155.1 26.4 155.1 28C155.1 29.7 153.3 30.7 150.4 30.7C147.5 30.7 145 29.8 142.9 28.2L139.9 32.3C142.5 34.5 146.4 35.8 150.4 35.8Z" fill="#fff"/>
</svg>
